<?xml version="1.0" encoding="UTF-8"?>
<svg id="Layer_1" xmlns="http://www.w3.org/2000/svg" version="1.1" viewBox="0 0 242 67">
  <!-- Generator: Adobe Illustrator 30.1.0, SVG Export Plug-In . SVG Version: 2.1.1 Build 136)  -->
  <defs>
    <style>
      .st0 {
        fill: #fff;
      }
    </style>
  </defs>
  <path class="st0" d="M46.55,20l3.96-3.96c.53-.53.51-1.05-.05-1.57-8.36-7.78-21.56-7.38-29.73.79-8.17,8.17-8.9,21.61-.87,29.64.8.8.64.77-.05,1.47l-3.96,3.96c-.53.53-.52,1.05.05,1.57,8.39,7.74,21.56,7.38,29.73-.79,8.17-8.17,8.68-21.39.87-29.64-.46-.49-.44-.97.05-1.47ZM23.92,42.64l3.91-3.91c.66-.66.59-.77.06-1.45-3.3-4.26-3.22-10.3.67-14.18,3.88-3.88,9.64-4.04,13.81-.95.66.49.69,1.02.09,1.6l-3.91,3.91c-.59.59-.69.71-.06,1.45,3.48,4.11,3.22,10.3-.67,14.18-3.88,3.88-9.52,3.86-13.81.95-.96-.65-.98-.71-.09-1.6Z"/>
  <path class="st0" d="M241.39,23.38v6.48c-1.08-.11-2.11-.16-3.08-.16-4.05,0-6.37,1.62-6.37,7.45v15.23h-6.43v-29.05h6.32v5.18c1.57-3.24,4.37-5.18,7.88-5.24.49,0,1.19.05,1.67.11Z"/>
  <path class="st0" d="M221.3,39.68h-21.65c.43,5.4,4.21,8.05,7.88,8.05,3.4,0,5.99-1.3,7.13-4.05h6.32c-1.3,4.64-5.72,9.4-13.18,9.4-9.34,0-14.69-7.07-14.69-15.44s6.05-14.96,14.26-14.96c8.91,0,14.53,7.29,13.93,17.01ZM207.37,27.7c-3.02,0-7.13,1.84-7.72,7.29h15.12c-.16-4.54-3.62-7.29-7.4-7.29Z"/>
  <path class="st0" d="M179.25,23.32v-7.67h6.43v7.67h5.83v4.64h-5.83v15.82c0,2.97.7,3.67,3.46,3.67h2.32v4.91h-4.75c-6.21,0-7.45-1.67-7.45-7.61v-16.79h-6.32v-4.64h6.32Z"/>
  <path class="st0" d="M162.51,23.32v-7.67h6.43v7.67h5.83v4.64h-5.83v15.82c0,2.97.7,3.67,3.46,3.67h2.32v4.91h-4.75c-6.21,0-7.45-1.67-7.45-7.61v-16.79h-4.32v-4.64h4.32Z"/>
  <path class="st0" d="M149.02,13.22h6.43v6.48h-6.43v-6.48ZM149.02,23.32h6.43v29.05h-6.43v-29.05Z"/>
  <path class="st0" d="M142.87,13.22v39.15h-6.43V13.22h6.43Z"/>
  <path class="st0" d="M110.88,37.85c0,6.7,3.24,9.99,7.51,9.99,4.54,0,7.18-3.73,7.18-9.99s-2.65-9.94-7.18-9.94c-4.27,0-7.51,3.24-7.51,9.94ZM104.72,23.32h6.43v3.89c1.73-2.86,4.75-4.54,8.64-4.54,7.13,0,12.47,5.94,12.47,15.17s-5.35,15.23-12.47,15.23c-3.89,0-6.91-1.67-8.64-4.54v13.28h-6.43V23.32Z"/>
  <path class="st0" d="M85.69,35.53l-4.75-.92c-6.21-1.3-11.29-4.43-11.29-11.07,0-7.29,7.61-11.02,14.8-11.02,7.78,0,13.77,3.51,15.34,11.66h-6.64c-1.13-4.75-5.18-6.05-9.07-6.05-3.02,0-7.51,1.35-7.51,5.18,0,3.02,2.43,4.54,5.83,5.18l4.81.92c6.86,1.3,13.39,3.89,13.39,11.72s-7.83,11.93-15.55,11.93c-9.34,0-15.61-5.02-16.47-13.66h6.75c1.24,5.35,4.59,8.05,10.04,8.05,4.64,0,8.37-2.11,8.37-5.89,0-4.05-4.32-5.35-8.05-6.05Z"/>
</svg>