<svg width="242" height="67" viewBox="0 0 242 67" fill="none" xmlns="http://www.w3.org/2000/svg">
<path d="M46.5546 20.002L50.5144 16.0422C51.0429 15.5137 51.0277 14.9903 50.4689 14.4721C42.1055 6.69568 28.909 7.09001 20.7377 15.2613C12.5665 23.4326 11.8329 36.8692 19.8686 44.9048C20.6687 45.705 20.5125 45.6783 19.8188 46.372L15.859 50.3318C15.3279 50.8629 15.3431 51.3862 15.9045 51.9018C24.2984 59.6402 37.4682 59.2802 45.6395 51.1089C53.8108 42.9376 54.3232 29.7144 46.5048 21.4691C46.0451 20.984 46.0616 20.4949 46.5546 20.002ZM23.9197 42.6369L27.8338 38.7228C28.497 38.0596 28.4208 37.9529 27.8912 37.2709C24.5955 33.0148 24.6726 26.971 28.5562 23.0874C32.4398 19.2037 38.1978 19.0467 42.3625 22.1366C43.0204 22.6268 43.0495 23.1616 42.4499 23.7409L38.5358 27.655C37.9412 28.2496 37.8421 28.3639 38.4784 29.1069C41.9608 33.2143 41.697 39.4068 37.8134 43.2904C33.9297 47.1741 28.2975 47.152 24.0071 44.2412C23.0431 43.5897 23.0278 43.5287 23.9197 42.6369Z" fill="black"/>
<path d="M241.392 23.3756V29.8556C240.312 29.7476 239.286 29.6936 238.314 29.6936C234.264 29.6936 231.942 31.3136 231.942 37.1456V52.3736H225.516V23.3216H231.834V28.5056C233.4 25.2656 236.208 23.3216 239.718 23.2676C240.204 23.2676 240.906 23.3216 241.392 23.3756Z" fill="black"/>
<path d="M221.304 39.6838H199.65C200.082 45.0838 203.862 47.7298 207.534 47.7298C210.936 47.7298 213.528 46.4338 214.662 43.6798H220.98C219.684 48.3238 215.256 53.0758 207.804 53.0758C198.462 53.0758 193.116 46.0018 193.116 37.6318C193.116 28.8838 199.164 22.6738 207.372 22.6738C216.282 22.6738 221.898 29.9638 221.304 39.6838ZM207.372 27.6958C204.348 27.6958 200.244 29.5318 199.65 34.9858H214.77C214.608 30.4498 211.152 27.6958 207.372 27.6958Z" fill="black"/>
<path d="M179.247 23.3203V15.6523H185.673V23.3203H191.505V27.9643H185.673V43.7863C185.673 46.7563 186.375 47.4583 189.129 47.4583H191.451V52.3723H186.699C180.489 52.3723 179.247 50.6983 179.247 44.7583V27.9643H174.927V23.3203H179.247Z" fill="black"/>
<path d="M162.515 23.3203V15.6523H168.941V23.3203H174.773V27.9643H168.941V43.7863C168.941 46.7563 169.643 47.4583 172.397 47.4583H174.719V52.3723H169.967C163.757 52.3723 162.515 50.6983 162.515 44.7583V27.9643H158.195V23.3203H162.515Z" fill="black"/>
<path d="M149.02 13.2227H155.446V19.7027H149.02V13.2227ZM149.02 23.3207H155.446V52.3727H149.02V23.3207Z" fill="black"/>
<path d="M142.867 13.2227V52.3727H136.441V13.2227H142.867Z" fill="black"/>
<path d="M110.877 37.8478C110.877 44.5438 114.117 47.8378 118.383 47.8378C122.919 47.8378 125.565 44.1118 125.565 37.8478C125.565 31.6378 122.919 27.9118 118.383 27.9118C114.117 27.9118 110.877 31.1518 110.877 37.8478ZM104.721 23.3218H111.147V27.2098C112.875 24.3478 115.899 22.6738 119.787 22.6738C126.915 22.6738 132.261 28.6138 132.261 37.8478C132.261 47.1898 126.915 53.0758 119.787 53.0758C115.899 53.0758 112.875 51.4018 111.147 48.5398V61.8238H104.721V23.3218Z" fill="black"/>
<path d="M85.6883 35.5255L80.9363 34.6075C74.7263 33.3115 69.6503 30.1795 69.6503 23.5375C69.6503 16.2475 77.2643 12.5215 84.4463 12.5215C92.2223 12.5215 98.2163 16.0315 99.7823 24.1855H93.1403C92.0063 19.4335 87.9563 18.1375 84.0683 18.1375C81.0443 18.1375 76.5623 19.4875 76.5623 23.3215C76.5623 26.3455 78.9923 27.8575 82.3943 28.5055L87.2003 29.4235C94.0583 30.7195 100.592 33.3115 100.592 41.1415C100.592 49.0795 92.7623 53.0755 85.0403 53.0755C75.6983 53.0755 69.4343 48.0535 68.5703 39.4135H75.3203C76.5623 44.7595 79.9103 47.4595 85.3643 47.4595C90.0083 47.4595 93.7343 45.3535 93.7343 41.5735C93.7343 37.5235 89.4143 36.2275 85.6883 35.5255Z" fill="black"/>
</svg>
